<svg width="20" height="20" viewBox="0 0 20 20" fill="none" xmlns="http://www.w3.org/2000/svg">
  <path
    d="M2.65662 9.73787C2.65662 6.19279 2.65662 4.41946 3.75782 3.31825C4.85903 2.21704 6.63157 2.21704 10.1774 2.21704C13.7225 2.21704 15.4959 2.21704 16.5971 3.31825C17.6983 4.41946 17.6983 6.192 17.6983 9.73787C17.6983 13.283 17.6983 15.0563 16.5971 16.1575C15.4959 17.2587 13.7233 17.2587 10.1774 17.2587C6.63237 17.2587 4.85903 17.2587 3.75782 16.1575C2.65662 15.0563 2.65662 13.2837 2.65662 9.73787Z"
    stroke="black" stroke-width="1.19398" stroke-linecap="round" stroke-linejoin="round" />
  <path
    d="M14.5379 5.38354H14.53M13.7399 9.73771C13.7399 10.6825 13.3646 11.5887 12.6965 12.2568C12.0284 12.9249 11.1223 13.3002 10.1774 13.3002C9.2326 13.3002 8.32646 12.9249 7.65836 12.2568C6.99026 11.5887 6.61493 10.6825 6.61493 9.73771C6.61493 8.79288 6.99026 7.88674 7.65836 7.21864C8.32646 6.55055 9.2326 6.17521 10.1774 6.17521C11.1223 6.17521 12.0284 6.55055 12.6965 7.21864C13.3646 7.88674 13.7399 8.79288 13.7399 9.73771Z"
    stroke="black" stroke-width="1.19398" stroke-linecap="round" stroke-linejoin="round" />
</svg>
