<svg width="20" height="20" viewBox="0 0 20 20" fill="none" xmlns="http://www.w3.org/2000/svg">
  <path
    d="M15.1171 4.12509C14.3913 3.39194 13.5268 2.81066 12.574 2.41513C11.6212 2.0196 10.5992 1.81774 9.56756 1.82134C5.24506 1.82134 1.72215 5.34425 1.72215 9.66675C1.72215 11.0522 2.08631 12.398 2.76715 13.5855L1.65881 17.6547L5.81506 16.5622C6.96298 17.1876 8.2534 17.5201 9.56756 17.5201C13.8901 17.5201 17.413 13.9972 17.413 9.67467C17.413 7.57675 16.5976 5.6055 15.1171 4.12509ZM9.56756 16.1901C8.3959 16.1901 7.24798 15.8734 6.24256 15.2797L6.00506 15.1372L3.53506 15.7863L4.19215 13.3797L4.03381 13.1343C3.38286 12.0948 3.03722 10.8932 3.03631 9.66675C3.03631 6.07259 5.96548 3.14342 9.55965 3.14342C11.3013 3.14342 12.9401 3.82425 14.1671 5.05925C14.7747 5.66406 15.2562 6.38344 15.5837 7.17571C15.9113 7.96798 16.0783 8.81738 16.0751 9.67467C16.0909 13.2688 13.1617 16.1901 9.56756 16.1901ZM13.1459 11.3134C12.948 11.2184 11.9821 10.7434 11.808 10.6722C11.6259 10.6088 11.4992 10.5772 11.3646 10.7672C11.2301 10.9651 10.858 11.4084 10.7471 11.5351C10.6363 11.6697 10.5176 11.6855 10.3196 11.5826C10.1217 11.4876 9.4884 11.2738 8.74423 10.6088C8.1584 10.0863 7.77048 9.44509 7.65173 9.24717C7.5409 9.04925 7.6359 8.94634 7.73881 8.84342C7.8259 8.75634 7.93673 8.61384 8.03173 8.503C8.12673 8.39217 8.16631 8.30509 8.22965 8.17842C8.29298 8.04384 8.26131 7.933 8.21381 7.838C8.16631 7.743 7.77048 6.77717 7.61215 6.38134C7.45381 6.00134 7.28756 6.04884 7.16881 6.04092H6.78881C6.65423 6.04092 6.4484 6.08842 6.26631 6.28634C6.09215 6.48425 5.58548 6.95925 5.58548 7.92509C5.58548 8.89092 6.29006 9.82509 6.38506 9.95175C6.48006 10.0863 7.77048 12.0655 9.73381 12.9126C10.2009 13.1184 10.5651 13.2372 10.8501 13.3243C11.3171 13.4747 11.7446 13.4509 12.0851 13.4034C12.4651 13.348 13.2488 12.9284 13.4071 12.4693C13.5734 12.0101 13.5734 11.6222 13.518 11.5351C13.4626 11.448 13.3438 11.4084 13.1459 11.3134Z"
    fill="black" />
</svg>
